<svg id="Capa_1" enable-background="new 0 0 512 512" height="512" viewBox="0 0 512 512" width="512" xmlns="http://www.w3.org/2000/svg"><g><path d="m59.173 329.659c-4.267-7.101-13.482-9.398-20.583-5.132l-31.313 18.815c-7.101 4.266-9.398 13.481-5.132 20.583 1.308 2.178 3.084 3.905 5.119 5.128 4.602 2.765 10.54 2.962 15.464.004l31.313-18.815c7.101-4.267 9.398-13.482 5.132-20.583z" fill="#51489a"/><path d="m182.341 452.827c-7.101-4.267-16.316-1.969-20.583 5.132l-18.815 31.313c-2.958 4.923-2.761 10.861.004 15.463 1.223 2.036 2.95 3.811 5.128 5.119 7.101 4.266 16.317 1.969 20.583-5.132l18.815-31.313c4.266-7.1 1.969-16.315-5.132-20.582z" fill="#39326c"/><path d="m236.364 450.289 167.877-279.394-48.398-35.951-194.085 323.015 12.858 7.726c21.302 12.8 48.948 5.907 61.748-15.396z" fill="#d5d3ea"/><g><path d="m61.711 275.636 279.394-167.877 35.951 48.398-323.015 194.085-7.726-12.858c-12.8-21.302-5.907-48.948 15.396-61.748z" fill="#eae7ea"/></g><path d="m484.81 295.892c-5.856-5.858-15.354-5.858-21.213 0-68.233 68.231-179.257 68.229-247.488 0-68.231-68.232-68.231-179.256 0-247.488 5.858-5.857 5.858-15.355 0-21.213-5.857-5.857-15.355-5.857-21.213 0-79.929 79.93-79.929 209.984 0 289.914 39.965 39.965 92.461 59.946 144.957 59.946s104.992-19.981 144.957-59.946c5.859-5.858 5.859-15.356 0-21.213z" fill="#ffe278"/><path d="m463.597 295.892c-68.233 68.231-179.257 68.229-247.488 0l-21.213 21.213c39.965 39.965 92.461 59.946 144.957 59.946s104.992-19.981 144.957-59.946c5.858-5.857 5.858-15.355 0-21.213-5.856-5.859-15.354-5.859-21.213 0z" fill="#ffc178"/><g><path d="m436.035 118.392 67.179-67.179c11.716-11.716 11.716-30.711 0-42.426s-30.711-11.716-42.426 0l-67.179 67.179z" fill="#51489a"/><path d="m414.822 97.179 21.213 21.213 67.179-67.178c11.715-11.716 11.716-30.711 0-42.427z" fill="#39326c"/><path d="m433.651 78.349c-29.289-29.289-76.777-29.289-106.066 0s-29.289 76.777 0 106.066 76.777 29.289 106.066 0c29.29-29.289 29.29-76.777 0-106.066z" fill="#8cbcff"/><g><path d="m433.651 78.349-106.066 106.066c29.289 29.289 76.777 29.289 106.066 0 29.29-29.289 29.29-76.777 0-106.066z" fill="#7c84e8"/></g></g><circle cx="380.618" cy="131.382" fill="#51489a" r="15"/><path d="m391.225 120.775-21.213 21.213c5.858 5.858 15.355 5.858 21.213 0s5.858-15.355 0-21.213z" fill="#39326c"/></g></svg>