<svg id="Capa_1" enable-background="new 0 0 512 512" height="512" viewBox="0 0 512 512" width="512" xmlns="http://www.w3.org/2000/svg"><g><circle cx="437" cy="437" fill="#f1f1f4" r="60"/><path d="m437 377v120c33.137 0 60-26.863 60-60s-26.863-60-60-60z" fill="#e2dff4"/><g><path d="m265 452h-60v-212h60z" fill="#e2dff4"/><path d="m235 240h30v212h-30z" fill="#d5d3ea"/><path d="m315 512h-160c-8.284 0-15-6.716-15-15v-5c0-30.327 24.673-55 55-55h80c30.327 0 55 24.673 55 55v5c0 8.284-6.716 15-15 15z" fill="#f1f1f4"/><path d="m437 512c-41.355 0-75-33.645-75-75s33.645-75 75-75 75 33.645 75 75-33.645 75-75 75zm0-120c-24.813 0-45 20.187-45 45s20.187 45 45 45 45-20.187 45-45-20.187-45-45-45z" fill="#5f6c75"/><path d="m437 392c24.813 0 45 20.187 45 45s-20.187 45-45 45v30c41.355 0 75-33.645 75-75s-33.645-75-75-75z" fill="#424c52"/></g><g><g><g><path d="m437.5 70h-67.5v65h67.5c17.949 0 32.5-14.551 32.5-32.5 0-17.949-14.551-32.5-32.5-32.5z" fill="#424c52"/><path d="m32.5 70h67.5v65h-67.5c-17.949 0-32.5-14.551-32.5-32.5 0-17.949 14.551-32.5 32.5-32.5z" fill="#5f6c75"/><path d="m376.362 60.448c-6.678-26.71-30.677-45.448-58.209-45.448h-166.306c-27.532 0-51.531 18.738-58.209 45.448l-18.638 74.552h320z" fill="#bdfdff"/><g><path d="m376.362 60.448c-6.678-26.71-30.677-45.448-58.209-45.448h-83.153v120h160z" fill="#aed0ff"/></g><path d="m384.086 153.19-22.276-89.104c-5.018-20.069-22.97-34.086-43.657-34.086h-166.306c-20.687 0-38.639 14.017-43.656 34.085l-22.277 89.105-29.104-7.276 22.276-89.104c8.362-33.449 38.282-56.81 72.761-56.81h166.307c34.479 0 64.399 23.361 72.761 56.81l22.276 89.104z" fill="#ff8e00"/><g><path d="m390.914 56.81c-8.362-33.449-38.282-56.81-72.761-56.81h-83.153v30h83.153c20.687 0 38.639 14.017 43.656 34.086l22.276 89.104 29.104-7.276z" fill="#ff6326"/></g><path d="m350 150c-8.284 0-15-6.716-15-15 0-19.299-15.701-35-35-35s-35 15.701-35 35c0 8.284-6.716 15-15 15s-15-6.716-15-15c0-35.841 29.159-65 65-65s65 29.159 65 65c0 8.284-6.716 15-15 15z" fill="#424c52"/><path d="m127.5 330h-35c-13.807 0-25-11.193-25-25v-65h85v65c0 13.807-11.193 25-25 25z" fill="#5f6c75"/><path d="m405 270h-105l-65-20-65 20h-105c-24.853 0-45-20.147-45-45v-60c0-24.853 20.147-45 45-45h340c24.853 0 45 20.147 45 45v60c0 24.853-20.147 45-45 45z" fill="#ff8e00"/><g><path d="m405 120h-170v130l65 20h105c24.853 0 45-20.147 45-45v-60c0-24.853-20.147-45-45-45z" fill="#ff6326"/></g><path d="m390 210h-30c-8.284 0-15-6.716-15-15s6.716-15 15-15h30c8.284 0 15 6.716 15 15s-6.716 15-15 15z" fill="#ffb454"/><path d="m110 210h-30c-8.284 0-15-6.716-15-15s6.716-15 15-15h30c8.284 0 15 6.716 15 15s-6.716 15-15 15z" fill="#ffdd54"/><path d="m300 270h-130v-65c0-13.807 11.193-25 25-25h80c13.807 0 25 11.193 25 25z" fill="#f1f1f4"/><g><g><path d="m300 205c0-13.807-11.193-25-25-25h-40v90h65z" fill="#e2dff4"/></g></g><path d="m235 512h80c8.284 0 15-6.716 15-15v-5c0-30.327-24.673-55-55-55h-40z" fill="#e2dff4"/></g></g></g></g></svg>