<svg id="color" enable-background="new 0 0 24 24" height="512" viewBox="0 0 24 24" width="512" xmlns="http://www.w3.org/2000/svg"><path d="m22 2.75c0-1.519-1.231-2.75-2.75-2.75h-14.5c-1.519 0-2.75 1.231-2.75 2.75v18.5c0 1.519 1.231 2.75 2.75 2.75h14.5c1.519 0 2.75-1.231 2.75-2.75z" fill="#eceff1"/><path d="m12 0h-7.25c-1.519 0-2.75 1.231-2.75 2.75v18.5c0 1.519 1.231 2.75 2.75 2.75h7.25z" fill="#cdd0d2"/><g fill="#607d8b"><path d="m7 11c-.22 0-.44-.072-.625-.219-.432-.345-.501-.974-.156-1.405l1.5-1.875-1.5-1.875c-.345-.433-.276-1.062.156-1.407.431-.344 1.061-.276 1.406.156l2 2.5c.292.365.292.884 0 1.249l-2 2.5c-.197.248-.488.376-.781.376z"/><path d="m16 11h-4c-.553 0-1-.448-1-1s.447-1 1-1h4c.553 0 1 .448 1 1s-.447 1-1 1z"/><path d="m17 16h-10c-.553 0-1-.448-1-1s.447-1 1-1h10c.553 0 1 .448 1 1s-.447 1-1 1z"/><path d="m17 20h-10c-.553 0-1-.448-1-1s.447-1 1-1h10c.553 0 1 .448 1 1s-.447 1-1 1z"/></g><path d="m7 4c-.22 0-.441.072-.625.219-.432.345-.501.974-.156 1.405l1.5 1.875-1.5 1.875c-.345.431-.275 1.061.156 1.405.185.149.405.221.625.221.293 0 .584-.128.781-.375l2-2.5c.292-.365.292-.884 0-1.249l-2-2.5c-.197-.248-.488-.376-.781-.376z" fill="#546d79"/><path d="m12 9c-.553 0-1 .448-1 1s.447 1 1 1z" fill="#546d79"/><path d="m12 14h-5c-.553 0-1 .448-1 1s.447 1 1 1h5z" fill="#546d79"/><path d="m12 18h-5c-.553 0-1 .448-1 1s.447 1 1 1h5z" fill="#546d79"/></svg>